<svg width="50" height="50" viewBox="0 0 50 50" fill="none" xmlns="http://www.w3.org/2000/svg">
<g clip-path="url(#clip0_2_129)">
<rect width="50" height="50" fill="white"/>
<path d="M2.76761 2.75051C-0.899583 6.4177 -0.945423 43.5022 2.76761 47.2153C6.43481 50.8825 43.5193 50.9283 47.2324 47.2153C50.9454 43.5022 50.8996 6.4177 47.2324 2.75051C43.6569 -0.870852 6.48065 -0.962532 2.76761 2.75051ZM41.7316 30.4378H30.5008V41.7145H19.4075V30.4378H8.13089V19.3446H19.4075V8.06794H30.5008V19.3446H41.7316V30.4378Z" fill="#4DA32F"/>
<path d="M30.5008 8.0681H19.4075V19.3447H8.13089V30.438H19.4075V41.7146H30.5008V30.438H41.7316V19.3447H30.5008V8.0681Z" fill="white"/>
</g>
<defs>
<clipPath id="clip0_2_129">
<rect width="50" height="50" fill="white"/>
</clipPath>
</defs>
</svg>
