<svg width="50" height="64" viewBox="0 0 50 64" fill="none" xmlns="http://www.w3.org/2000/svg">
<path d="M41.9199 0L50 2.08083L35.7738 45.0082C34.5782 48.823 32.8611 51.8444 30.6223 54.0722C28.3836 56.3 25.7713 57.7058 22.7854 58.2896C19.7995 58.8734 16.5723 58.6231 13.1036 57.5386C9.82979 56.5151 7.10254 55.0106 4.92185 53.0252C2.74725 51.0203 1.27689 48.68 0.510754 46.0043C-0.255381 43.3285 -0.15961 40.4627 0.798067 37.407L7.93028 39.6368C7.39959 41.3301 7.35497 42.9403 7.79642 44.4674C8.26345 45.9812 9.12767 47.3199 10.3891 48.4836C11.6505 49.6473 13.2263 50.5247 15.1165 51.1157C17.2016 51.7676 19.1122 51.884 20.8482 51.4651C22.5842 51.0462 24.0976 50.1089 25.3882 48.6532C26.7045 47.1841 27.75 45.2136 28.5247 42.7418L41.9199 0Z" fill="#DF3437"/>
<path d="M50 2.08083V60.4388L41.2433 63.5417L3.5254 19.773L11.9954 16.6226L41.1048 51.853L41.6341 51.6561L40.5815 5.99L50 2.08083Z" fill="#DF3437"/>
</svg>
