<svg width="50" height="50" viewBox="0 0 50 50" fill="none" xmlns="http://www.w3.org/2000/svg">
<g clip-path="url(#clip0_1547_39)">
<rect width="50" height="50" fill="white"/>
<path d="M25.0091 29.6753C27.4765 29.6753 29.4768 27.6742 29.4768 25.2056C29.4768 22.737 27.4765 20.7358 25.0091 20.7358C22.5416 20.7358 20.5413 22.737 20.5413 25.2056C20.5413 27.6742 22.5416 29.6753 25.0091 29.6753Z" fill="#00D8FF"/>
<path d="M25.0089 35.4446C18.7345 35.4446 13.252 34.7055 9.14915 33.2988C6.48806 32.3906 4.22747 31.1796 2.61658 29.7996C0.907795 28.3393 0 26.7454 0 25.205C0 22.249 3.23959 19.3553 8.67746 17.4676C13.1274 15.9184 18.9301 15.0547 25 15.0547C30.9629 15.0547 36.6856 15.8916 41.1089 17.4231C43.6987 18.3135 45.8793 19.471 47.4279 20.7532C49.11 22.16 50 23.7004 50 25.205C50 28.277 46.3776 31.3843 40.5392 33.3166C36.4098 34.6877 30.8916 35.4446 25.0089 35.4446ZM25.0089 17.1916C19.2506 17.1916 13.5546 18.0286 9.38945 19.4799C4.38767 21.2251 2.14488 23.6114 2.14488 25.205C2.14488 26.8612 4.55677 29.47 9.84334 31.2775C13.7237 32.6043 18.9746 33.3077 25.0089 33.3077C30.6693 33.3077 35.9469 32.5954 39.8717 31.2864C45.363 29.4611 47.8728 26.8523 47.8728 25.205C47.8728 24.3593 47.232 23.3619 46.0662 22.3914C44.7222 21.2696 42.7643 20.2457 40.4237 19.4354C36.2139 17.993 30.7405 17.1916 25.0089 17.1916Z" fill="#00D8FF"/>
<path d="M14.8721 47.4826C13.9643 47.4826 13.1633 47.2868 12.4869 46.8951C9.93262 45.417 9.04262 41.1609 10.1195 35.507C11.0006 30.8681 13.1544 25.4188 16.1893 20.1567C19.1708 14.9924 22.7485 10.4514 26.2819 7.3796C28.3466 5.58103 30.4382 4.26324 32.3249 3.56874C34.3808 2.81191 36.1609 2.81191 37.4602 3.55984C40.1213 5.09131 41.0025 9.79255 39.7564 15.8116C38.8752 20.0854 36.7749 25.2407 33.8378 30.3427C30.7051 35.774 27.3232 40.1548 24.0569 43.0129C21.9386 44.865 19.7582 46.2183 17.7646 46.9218C16.7233 47.2957 15.7443 47.4826 14.8721 47.4826ZM17.106 20.6909L18.0316 21.2251C15.1569 26.2112 13.0298 31.5625 12.211 35.9076C11.2231 41.1164 12.1754 44.2506 13.546 45.0431C13.8842 45.2389 14.3292 45.3457 14.8721 45.3457C16.6432 45.3457 19.4288 44.2239 22.6506 41.4103C25.739 38.7125 28.9697 34.5098 31.9868 29.2832C34.8169 24.3771 36.8283 19.4444 37.6649 15.3931C38.8307 9.72131 37.8252 6.24881 36.3921 5.42075C35.6624 5.00227 34.4788 5.0557 33.0546 5.58103C31.4081 6.18647 29.5482 7.3707 27.6791 9.0001C24.3238 11.9206 20.8974 16.2657 18.0316 21.234L17.106 20.6909Z" fill="#00D8FF"/>
<path d="M35.1464 47.5098C32.7257 47.5098 29.6552 46.0495 26.4512 43.2893C22.8734 40.2086 19.2334 35.6232 16.1895 30.361C13.1992 25.1967 11.0632 19.8276 10.1643 15.2243C9.63918 12.5354 9.54128 10.069 9.87948 8.0834C10.2533 5.91977 11.1344 4.37939 12.4427 3.62256C15.0949 2.08219 19.6071 3.66708 24.1996 7.75395C27.457 10.6477 30.8744 15.0462 33.8204 20.1393C36.9621 25.5706 39.0713 30.6904 39.9079 34.9464C40.4507 37.7066 40.5398 40.271 40.1572 42.3544C39.7477 44.5716 38.8221 46.1476 37.4871 46.9221C36.8197 47.3139 36.0276 47.5098 35.1464 47.5098ZM18.0407 29.2924C20.9244 34.2786 24.5021 38.7929 27.8485 41.6688C31.8623 45.1235 35.0485 45.8714 36.428 45.0701C37.861 44.242 38.9111 40.8498 37.8254 35.3648C37.0244 31.3404 35.004 26.4432 31.9781 21.2166C29.1389 16.3106 25.8728 12.0991 22.7843 9.35667C18.459 5.51018 14.9525 4.6465 13.5196 5.47457C12.7898 5.89304 12.2469 6.95261 11.9888 8.44846C11.6951 10.1758 11.7841 12.384 12.2647 14.8147C13.1191 19.1865 15.1661 24.3241 18.0407 29.2924Z" fill="#00D8FF"/>
</g>
<defs>
<clipPath id="clip0_1547_39">
<rect width="50" height="50" fill="white"/>
</clipPath>
</defs>
</svg>
