<svg width="50" height="50" viewBox="0 0 50 50" fill="none" xmlns="http://www.w3.org/2000/svg">
<g clip-path="url(#clip0_1547_314)">
<rect width="50" height="50" fill="white"/>
<path d="M23.4374 29.6879C31.6355 29.6879 38.2814 23.042 38.2814 14.8439C38.2814 6.64585 31.6355 0 23.4374 0C15.2394 0 8.59351 6.64585 8.59351 14.8439C8.59351 23.042 15.2394 29.6879 23.4374 29.6879Z" fill="#036C70"/>
<path d="M37.3044 40.6252C44.3158 40.6252 49.9996 34.9414 49.9996 27.93C49.9996 20.9187 44.3158 15.2349 37.3044 15.2349C30.2931 15.2349 24.6093 20.9187 24.6093 27.93C24.6093 34.9414 30.2931 40.6252 37.3044 40.6252Z" fill="#1A9BA1"/>
<path d="M24.9999 50.0001C30.609 50.0001 35.156 45.4531 35.156 39.8441C35.156 34.235 30.609 29.688 24.9999 29.688C19.3909 29.688 14.8439 34.235 14.8439 39.8441C14.8439 45.4531 19.3909 50.0001 24.9999 50.0001Z" fill="#37C6D0"/>
<path d="M26.0422 10.938H9.11399C8.76899 12.2083 8.59409 13.5187 8.59387 14.835C8.59387 23.0332 15.2396 29.6845 23.4378 29.6879C23.8705 29.6879 24.2988 29.6676 24.7237 29.6316L24.7315 29.6909C19.2296 29.836 14.8436 34.3394 14.8436 39.8436C14.8436 40.1065 14.8533 40.3671 14.8736 40.6255H26.0422C27.1908 40.6221 28.1219 39.6913 28.1249 38.5424V13.0207C28.1215 11.8721 27.1908 10.941 26.0418 10.938H26.0422Z" fill="black" fill-opacity="0.102"/>
<path d="M24.4795 12.5H8.77643C8.65493 13.2714 8.59155 14.0544 8.59155 14.8362C8.59155 23.0352 15.2388 29.6858 23.4377 29.6877C23.8705 29.6877 24.2987 29.6674 24.7236 29.6314L24.7315 29.6907C19.2273 29.8395 14.8431 34.3451 14.8431 39.8512C14.8431 40.638 14.935 41.4221 15.115 42.1879H24.4795C25.6281 42.1845 26.5588 41.2537 26.5622 40.1051V14.5835C26.5588 13.4349 25.6281 12.5041 24.4791 12.5008L24.4795 12.5Z" fill="black" fill-opacity="0.2"/>
<path d="M24.4795 12.5H8.77643C8.65493 13.2714 8.59155 14.0544 8.59155 14.8362C8.59155 23.0352 15.2388 29.6858 23.4377 29.6877C23.8705 29.6877 24.2987 29.6674 24.7236 29.6314L24.7315 29.6907C19.531 29.8275 15.2706 33.8756 14.8716 39.0622L24.4798 39.0626C25.6285 39.0592 26.5592 38.1285 26.5626 36.9799V14.5831C26.5592 13.4345 25.6285 12.5038 24.4795 12.5004V12.5Z" fill="black" fill-opacity="0.2"/>
<path d="M22.9172 12.5H8.77643C8.65493 13.2714 8.59155 14.0544 8.59155 14.8362C8.59155 23.0352 15.2388 29.6858 23.4377 29.6877C23.8705 29.6877 24.2987 29.6674 24.7236 29.6314L24.7315 29.6907C19.531 29.8275 15.2706 33.8756 14.8716 39.0622L22.9172 39.0626C24.0659 39.0592 24.9966 38.1285 25 36.9799V14.5831C24.9966 13.4345 24.0659 12.5038 22.9172 12.5004V12.5Z" fill="black" fill-opacity="0.2"/>
<path d="M2.08274 12.5H22.9173C24.0674 12.5 25 13.4326 25 14.5827V35.4169C25 36.567 24.0674 37.4996 22.9173 37.4996H2.08274C0.93262 37.4996 0 36.567 0 35.4169V14.5827C0 13.4326 0.93262 12.5 2.08274 12.5Z" fill="#03787C"/>
<path d="M8.85937 24.727C8.33294 24.3779 7.89356 23.9127 7.575 23.3673C7.2799 22.8259 7.12531 22.2191 7.12537 21.6025C7.12537 21.5714 7.12613 21.5392 7.12688 21.5084C7.12613 21.472 7.125 21.4342 7.125 21.3974C7.125 20.5578 7.42087 19.744 7.95937 19.1005C8.55037 18.427 9.31761 17.9268 10.1722 17.6568C11.1142 17.3459 12.1035 17.1873 13.0965 17.1873H13.1958C13.3346 17.1843 13.4775 17.1802 13.6177 17.1802C14.8256 17.1802 16.0305 17.3726 17.1783 17.7453V20.5578C16.6211 20.2203 16.0121 19.9709 15.3768 19.8217C14.6932 19.654 13.992 19.5692 13.2881 19.5689H13.269C12.5203 19.5419 11.7765 19.6992 11.103 20.0272C10.584 20.251 10.2469 20.7625 10.2454 21.3284V21.3404C10.2454 21.679 10.3759 22.0053 10.6095 22.2502C10.8906 22.5413 11.2225 22.7785 11.589 22.9503C11.9996 23.1543 12.612 23.4254 13.4265 23.7629C13.5168 23.7914 13.6053 23.8266 13.6905 23.8675C14.4944 24.182 15.2699 24.5647 16.0087 25.0113C16.568 25.3561 17.0374 25.8288 17.3782 26.3905C17.7044 26.9823 17.8762 27.6471 17.8762 28.3229C17.8762 28.372 17.8747 28.423 17.8736 28.4717C17.9135 29.373 17.6377 30.2599 17.094 30.9797C16.551 31.6409 15.8253 32.1284 15.0082 32.3796C14.0921 32.6672 13.1375 32.8135 12.1774 32.8135C12.1312 32.8135 12.0814 32.8123 12.0367 32.8123C12.018 32.8127 11.9929 32.8127 11.9741 32.8127C11.094 32.8127 10.2124 32.7381 9.34574 32.5907C8.59462 32.4726 7.857 32.2581 7.158 31.9592V28.9874C7.82812 29.4651 8.57774 29.8232 9.37086 30.0419C10.1584 30.2882 10.9807 30.4199 11.8054 30.4326C11.8935 30.4382 11.9831 30.4412 12.0716 30.4412C12.7473 30.4412 13.4148 30.277 14.0133 29.9642C14.2389 29.8344 14.4263 29.6475 14.5567 29.4222C14.687 29.1969 14.7557 28.9413 14.7558 28.681C14.7558 28.6675 14.7558 28.654 14.7551 28.6409V28.6292C14.7551 28.2539 14.6055 27.8935 14.3396 27.6284C14.0038 27.2997 13.6156 27.0292 13.191 26.8281C12.7023 26.5821 11.9805 26.2593 11.0254 25.8595C10.269 25.5569 9.54036 25.1733 8.85937 24.7263V24.7266V24.727Z" fill="white"/>
</g>
<defs>
<clipPath id="clip0_1547_314">
<rect width="50" height="50" fill="white"/>
</clipPath>
</defs>
</svg>
