<svg width="35" height="35" viewBox="0 0 35 35" fill="none" xmlns="http://www.w3.org/2000/svg">
<g clip-path="url(#clip0_1501_5)">
<path d="M17.4809 30.3933C10.3708 30.3933 4.60687 24.6294 4.60687 17.5194C4.60687 10.4094 10.3708 4.64559 17.4809 4.64559C24.5908 4.64559 30.3546 10.4094 30.3546 17.5194C30.3546 24.6294 24.5908 30.3933 17.4809 30.3933ZM17.4809 0.0385742C7.82647 0.0385742 0 7.86518 0 17.5194C0 27.1738 7.82647 35.0002 17.4809 35.0002C27.1351 35.0002 34.9616 27.1738 34.9616 17.5194C34.9616 7.86518 27.1353 0.0385742 17.4809 0.0385742Z" fill="#CF272D"/>
<path d="M18.1994 13.1659C18.1994 11.1586 19.8268 9.53125 21.8342 9.53125C23.8417 9.53125 25.4689 11.1586 25.4689 13.1659C25.4689 15.1735 23.8417 16.8007 21.8342 16.8007C19.8268 16.8007 18.1994 15.1735 18.1994 13.1659ZM18.1994 21.873C18.1994 19.8657 19.8268 18.2382 21.8342 18.2382C23.8417 18.2382 25.4689 19.8657 25.4689 21.873C25.4689 23.8804 23.8417 25.5078 21.8342 25.5078C19.8268 25.5078 18.1994 23.8804 18.1994 21.873ZM9.49249 21.873C9.49249 19.8657 11.12 18.2382 13.1273 18.2382C15.1347 18.2382 16.7621 19.8657 16.7621 21.873C16.7621 23.8804 15.1347 25.5078 13.1273 25.5078C11.12 25.5078 9.49249 23.8804 9.49249 21.873ZM9.49249 13.1661C9.49249 11.1586 11.12 9.53139 13.1273 9.53139C15.1347 9.53139 16.7621 11.1586 16.7621 13.1661C16.7621 15.1736 15.1347 16.8009 13.1273 16.8009C11.12 16.8009 9.49249 15.1736 9.49249 13.1661Z" fill="#CF272D"/>
</g>
<defs>
<clipPath id="clip0_1501_5">
<rect width="35" height="35" fill="white"/>
</clipPath>
</defs>
</svg>
